<mxfile host="app.diagrams.net" modified="2022-06-30T09:59:52.959Z" agent="5.0 (Macintosh; Intel Mac OS X 10_15_7) AppleWebKit/537.36 (KHTML, like Gecko) Chrome/103.0.0.0 Safari/537.36" etag="ldXbEjepZ_vei-zLE9Sl" version="20.0.1" type="github">
  <diagram id="armhqeUeygUle4aU3SDP" name="Page-1">
    <mxGraphModel dx="1426" dy="794" grid="1" gridSize="10" guides="1" tooltips="1" connect="1" arrows="1" fold="1" page="1" pageScale="1" pageWidth="850" pageHeight="1100" math="0" shadow="0">
      <root>
        <mxCell id="0" />
        <mxCell id="1" parent="0" />
        <mxCell id="ORBNNmTDlNbMWPVycZKd-1" value="&lt;font style=&quot;font-size: 18px;&quot;&gt;EVM circuit -&amp;gt; Tables&lt;/font&gt;" style="rounded=0;whiteSpace=wrap;html=1;fillColor=#f5f5f5;strokeColor=#666666;strokeWidth=1;fontColor=#333333;" vertex="1" parent="1">
          <mxGeometry x="480" y="200" width="210" height="60" as="geometry" />
        </mxCell>
        <mxCell id="ORBNNmTDlNbMWPVycZKd-2" value="Fixed table" style="rounded=1;whiteSpace=wrap;html=1;fontSize=18;strokeWidth=1;" vertex="1" parent="1">
          <mxGeometry x="80" y="350" width="120" height="60" as="geometry" />
        </mxCell>
        <mxCell id="ORBNNmTDlNbMWPVycZKd-3" value="Tx table" style="rounded=1;whiteSpace=wrap;html=1;fontSize=18;strokeWidth=1;" vertex="1" parent="1">
          <mxGeometry x="260" y="350" width="120" height="60" as="geometry" />
        </mxCell>
        <mxCell id="ORBNNmTDlNbMWPVycZKd-4" value="Rw table" style="rounded=1;whiteSpace=wrap;html=1;fontSize=18;strokeWidth=1;" vertex="1" parent="1">
          <mxGeometry x="440" y="350" width="120" height="60" as="geometry" />
        </mxCell>
        <mxCell id="ORBNNmTDlNbMWPVycZKd-5" value="Bytecode table" style="rounded=1;whiteSpace=wrap;html=1;fontSize=18;strokeWidth=1;" vertex="1" parent="1">
          <mxGeometry x="620" y="350" width="120" height="60" as="geometry" />
        </mxCell>
        <mxCell id="ORBNNmTDlNbMWPVycZKd-6" value="Block table" style="rounded=1;whiteSpace=wrap;html=1;fontSize=18;strokeWidth=1;" vertex="1" parent="1">
          <mxGeometry x="800" y="350" width="120" height="60" as="geometry" />
        </mxCell>
        <mxCell id="ORBNNmTDlNbMWPVycZKd-7" value="Byte table" style="rounded=1;whiteSpace=wrap;html=1;fontSize=18;strokeWidth=1;" vertex="1" parent="1">
          <mxGeometry x="980" y="350" width="120" height="60" as="geometry" />
        </mxCell>
        <mxCell id="ORBNNmTDlNbMWPVycZKd-8" value="" style="endArrow=classic;html=1;rounded=0;fontSize=18;exitX=0.5;exitY=1;exitDx=0;exitDy=0;entryX=0.5;entryY=0;entryDx=0;entryDy=0;strokeWidth=1.5;" edge="1" parent="1" source="ORBNNmTDlNbMWPVycZKd-1" target="ORBNNmTDlNbMWPVycZKd-2">
          <mxGeometry width="50" height="50" relative="1" as="geometry">
            <mxPoint x="400" y="420" as="sourcePoint" />
            <mxPoint x="450" y="370" as="targetPoint" />
          </mxGeometry>
        </mxCell>
        <mxCell id="ORBNNmTDlNbMWPVycZKd-9" value="" style="endArrow=classic;html=1;rounded=0;fontSize=18;exitX=0.5;exitY=1;exitDx=0;exitDy=0;entryX=0.5;entryY=0;entryDx=0;entryDy=0;strokeWidth=1.5;" edge="1" parent="1" source="ORBNNmTDlNbMWPVycZKd-1" target="ORBNNmTDlNbMWPVycZKd-3">
          <mxGeometry width="50" height="50" relative="1" as="geometry">
            <mxPoint x="595" y="270" as="sourcePoint" />
            <mxPoint x="150" y="360" as="targetPoint" />
          </mxGeometry>
        </mxCell>
        <mxCell id="ORBNNmTDlNbMWPVycZKd-10" value="" style="endArrow=classic;html=1;rounded=0;fontSize=18;exitX=0.5;exitY=1;exitDx=0;exitDy=0;entryX=0.5;entryY=0;entryDx=0;entryDy=0;strokeWidth=1.5;" edge="1" parent="1" source="ORBNNmTDlNbMWPVycZKd-1" target="ORBNNmTDlNbMWPVycZKd-4">
          <mxGeometry width="50" height="50" relative="1" as="geometry">
            <mxPoint x="595" y="270" as="sourcePoint" />
            <mxPoint x="330" y="360" as="targetPoint" />
          </mxGeometry>
        </mxCell>
        <mxCell id="ORBNNmTDlNbMWPVycZKd-11" value="" style="endArrow=classic;html=1;rounded=0;fontSize=18;exitX=0.5;exitY=1;exitDx=0;exitDy=0;entryX=0.5;entryY=0;entryDx=0;entryDy=0;strokeWidth=1.5;" edge="1" parent="1" source="ORBNNmTDlNbMWPVycZKd-1" target="ORBNNmTDlNbMWPVycZKd-5">
          <mxGeometry width="50" height="50" relative="1" as="geometry">
            <mxPoint x="595" y="270" as="sourcePoint" />
            <mxPoint x="510" y="360" as="targetPoint" />
          </mxGeometry>
        </mxCell>
        <mxCell id="ORBNNmTDlNbMWPVycZKd-12" value="" style="endArrow=classic;html=1;rounded=0;fontSize=18;exitX=0.5;exitY=1;exitDx=0;exitDy=0;entryX=0.5;entryY=0;entryDx=0;entryDy=0;strokeWidth=1.5;" edge="1" parent="1" source="ORBNNmTDlNbMWPVycZKd-1" target="ORBNNmTDlNbMWPVycZKd-6">
          <mxGeometry width="50" height="50" relative="1" as="geometry">
            <mxPoint x="595" y="270" as="sourcePoint" />
            <mxPoint x="690" y="360" as="targetPoint" />
          </mxGeometry>
        </mxCell>
        <mxCell id="ORBNNmTDlNbMWPVycZKd-13" value="" style="endArrow=classic;html=1;rounded=0;fontSize=18;exitX=0.5;exitY=1;exitDx=0;exitDy=0;entryX=0.5;entryY=0;entryDx=0;entryDy=0;strokeWidth=1.5;" edge="1" parent="1" source="ORBNNmTDlNbMWPVycZKd-1" target="ORBNNmTDlNbMWPVycZKd-7">
          <mxGeometry width="50" height="50" relative="1" as="geometry">
            <mxPoint x="595" y="270" as="sourcePoint" />
            <mxPoint x="870" y="360" as="targetPoint" />
          </mxGeometry>
        </mxCell>
        <mxCell id="ORBNNmTDlNbMWPVycZKd-14" value="&lt;font style=&quot;font-size: 12px;&quot;&gt;range table&lt;/font&gt;" style="rounded=1;whiteSpace=wrap;html=1;fontSize=18;strokeWidth=1;" vertex="1" parent="1">
          <mxGeometry x="10" y="480" width="120" height="60" as="geometry" />
        </mxCell>
        <mxCell id="ORBNNmTDlNbMWPVycZKd-15" value="&lt;font style=&quot;font-size: 12px;&quot;&gt;bitwise table&lt;/font&gt;" style="rounded=1;whiteSpace=wrap;html=1;fontSize=18;strokeWidth=1;" vertex="1" parent="1">
          <mxGeometry x="150" y="480" width="120" height="60" as="geometry" />
        </mxCell>
        <mxCell id="ORBNNmTDlNbMWPVycZKd-17" value="" style="endArrow=classic;html=1;rounded=0;fontSize=18;exitX=0.5;exitY=1;exitDx=0;exitDy=0;entryX=0.5;entryY=0;entryDx=0;entryDy=0;strokeWidth=1.5;" edge="1" parent="1" source="ORBNNmTDlNbMWPVycZKd-2" target="ORBNNmTDlNbMWPVycZKd-14">
          <mxGeometry width="50" height="50" relative="1" as="geometry">
            <mxPoint x="130" y="440" as="sourcePoint" />
            <mxPoint x="45" y="530" as="targetPoint" />
          </mxGeometry>
        </mxCell>
        <mxCell id="ORBNNmTDlNbMWPVycZKd-18" value="" style="endArrow=classic;html=1;rounded=0;fontSize=18;exitX=0.5;exitY=1;exitDx=0;exitDy=0;strokeWidth=1.5;entryX=0.5;entryY=0;entryDx=0;entryDy=0;" edge="1" parent="1" source="ORBNNmTDlNbMWPVycZKd-2" target="ORBNNmTDlNbMWPVycZKd-15">
          <mxGeometry width="50" height="50" relative="1" as="geometry">
            <mxPoint x="150" y="420" as="sourcePoint" />
            <mxPoint x="220" y="460" as="targetPoint" />
          </mxGeometry>
        </mxCell>
        <mxCell id="ORBNNmTDlNbMWPVycZKd-19" value="Fixed table包含了许多pre-built tables&lt;br&gt;传入tag和value（pre-built relationship），查询对应的子table" style="text;html=1;strokeColor=none;fillColor=none;align=center;verticalAlign=middle;whiteSpace=wrap;rounded=0;fontSize=12;" vertex="1" parent="1">
          <mxGeometry x="15" y="550" width="250" height="50" as="geometry" />
        </mxCell>
        <mxCell id="ORBNNmTDlNbMWPVycZKd-20" value="&lt;b&gt;一个block&lt;/b&gt;中的所有transactions" style="text;html=1;strokeColor=none;fillColor=none;align=center;verticalAlign=middle;whiteSpace=wrap;rounded=0;fontSize=12;" vertex="1" parent="1">
          <mxGeometry x="265" y="425" width="110" height="30" as="geometry" />
        </mxCell>
        <mxCell id="ORBNNmTDlNbMWPVycZKd-21" value="这个是read-write table&lt;br&gt;其中包含时序数据（time-aware data）的读写访问记录（record）" style="text;html=1;strokeColor=none;fillColor=none;align=center;verticalAlign=middle;whiteSpace=wrap;rounded=0;fontSize=12;" vertex="1" parent="1">
          <mxGeometry x="400" y="420" width="200" height="40" as="geometry" />
        </mxCell>
        <mxCell id="ORBNNmTDlNbMWPVycZKd-22" value="所有的contract code（还有creation code -&amp;gt; 应该是创建一个合约的那个code）" style="text;html=1;strokeColor=none;fillColor=none;align=center;verticalAlign=middle;whiteSpace=wrap;rounded=0;fontSize=12;" vertex="1" parent="1">
          <mxGeometry x="607.5" y="420" width="145" height="60" as="geometry" />
        </mxCell>
        <mxCell id="ORBNNmTDlNbMWPVycZKd-23" value="Block table&lt;br&gt;关于这个block的所有常量" style="text;html=1;strokeColor=none;fillColor=none;align=center;verticalAlign=middle;whiteSpace=wrap;rounded=0;fontSize=12;" vertex="1" parent="1">
          <mxGeometry x="790" y="420" width="140" height="40" as="geometry" />
        </mxCell>
        <mxCell id="ORBNNmTDlNbMWPVycZKd-24" value="byte value&lt;br&gt;是什么东西？" style="text;html=1;strokeColor=none;fillColor=none;align=center;verticalAlign=middle;whiteSpace=wrap;rounded=0;fontSize=12;" vertex="1" parent="1">
          <mxGeometry x="990" y="425" width="100" height="30" as="geometry" />
        </mxCell>
      </root>
    </mxGraphModel>
  </diagram>
</mxfile>
